<?xml version="1.0" standalone="no"?>
<!DOCTYPE svg PUBLIC "-//W3C//DTD SVG 20010904//EN"
 "http://www.w3.org/TR/2001/REC-SVG-20010904/DTD/svg10.dtd">
<svg version="1.0" xmlns="http://www.w3.org/2000/svg"
 width="2100.000000pt" height="1500.000000pt" viewBox="0 0 2100.000000 1500.000000"
 preserveAspectRatio="xMidYMid meet">
<metadata>
Created by potrace 1.15, written by Peter Selinger 2001-2017
</metadata>
<g transform="translate(0.000000,1500.000000) scale(0.100000,-0.100000)"
fill="#000000" stroke="none">
<path d="M11520 11540 c0 -5 -13 -10 -30 -10 -20 0 -30 -5 -30 -15 0 -12 -13
-15 -58 -15 -46 0 -60 -4 -70 -20 -10 -17 -23 -20 -91 -20 -61 0 -80 -3 -85
-15 -4 -11 -21 -15 -61 -15 -30 0 -55 -4 -55 -10 0 -6 -33 -10 -80 -10 -47 0
-80 4 -80 10 0 6 -50 10 -130 10 -109 0 -130 2 -130 15 0 11 -11 15 -39 15
-49 0 -71 8 -71 26 0 10 -15 14 -54 14 -46 0 -56 -3 -61 -20 -4 -11 -15 -20
-26 -20 -20 0 -20 -7 -18 -903 2 -867 1 -905 -17 -925 -10 -12 -24 -22 -31
-22 -7 0 -13 -7 -13 -15 0 -8 -6 -15 -14 -15 -7 0 -16 -9 -19 -20 -4 -15 -14
-20 -36 -20 -21 0 -31 -5 -31 -15 0 -8 -6 -15 -14 -15 -8 0 -18 -9 -21 -20 -3
-11 -13 -20 -21 -20 -8 0 -14 -7 -14 -15 0 -10 -11 -15 -35 -15 -33 0 -35 -2
-35 -35 0 -32 -3 -35 -29 -35 -16 0 -31 -6 -35 -15 -3 -8 -12 -15 -21 -15 -8
0 -15 -6 -15 -12 0 -24 -47 -58 -79 -58 -29 0 -31 -3 -31 -35 0 -32 -2 -35
-30 -35 -20 0 -30 -5 -30 -15 0 -8 -7 -15 -15 -15 -9 0 -19 -8 -22 -17 -12
-30 -43 -53 -73 -53 -23 0 -30 -4 -30 -20 0 -11 -5 -20 -11 -20 -6 0 -25 -16
-42 -35 -21 -24 -39 -35 -59 -35 -18 0 -28 -5 -28 -15 0 -8 -7 -15 -15 -15 -8
0 -15 -7 -15 -15 0 -8 -6 -15 -14 -15 -7 0 -16 -9 -19 -20 -3 -11 -12 -20 -21
-20 -9 0 -16 -4 -16 -9 0 -21 -48 -61 -73 -61 -13 0 -27 -7 -31 -15 -3 -8 -12
-15 -21 -15 -8 0 -15 -9 -15 -20 0 -11 -7 -20 -15 -20 -8 0 -15 -7 -15 -15 0
-10 -11 -15 -35 -15 -19 0 -35 -4 -35 -9 0 -14 -45 -61 -59 -61 -6 0 -11 -7
-11 -15 0 -8 -6 -15 -14 -15 -7 0 -16 -9 -19 -20 -3 -11 -12 -20 -21 -20 -9 0
-16 -7 -16 -15 0 -10 -11 -15 -35 -15 -28 0 -35 -4 -35 -20 0 -11 -7 -20 -15
-20 -8 0 -15 -7 -15 -15 0 -9 -9 -15 -25 -15 -16 0 -37 -13 -58 -35 -17 -19
-37 -35 -43 -35 -7 0 -15 -7 -18 -16 -3 -9 -6 -947 -6 -2085 l0 -2069 379 0
c336 0 380 2 385 16 3 9 6 344 6 745 0 616 2 730 14 735 11 4 13 22 9 85 -6
76 -5 80 16 86 15 4 21 13 21 34 0 19 5 29 15 29 8 0 15 9 15 20 0 11 7 20 15
20 10 0 15 10 15 28 0 27 37 72 59 72 6 0 11 7 11 15 0 8 6 15 14 15 7 0 16 9
19 20 3 11 12 20 21 20 9 0 16 7 16 15 0 8 7 15 15 15 8 0 15 6 15 13 0 14 43
57 58 57 5 0 12 9 15 20 3 11 12 20 21 20 9 0 16 7 16 15 0 12 14 15 65 15 51
0 65 3 65 15 0 10 10 15 31 15 22 0 32 5 36 20 5 19 14 20 303 20 290 0 299
-1 305 -20 4 -14 15 -20 36 -20 19 0 29 -5 29 -15 0 -11 12 -15 50 -15 36 0
52 -4 56 -15 4 -8 17 -15 31 -15 16 0 27 -7 30 -20 3 -11 11 -20 19 -20 7 0
17 -6 21 -14 4 -8 19 -16 33 -18 20 -2 26 -10 28 -35 3 -28 7 -32 35 -35 28
-3 32 -7 35 -35 2 -21 9 -33 18 -33 8 0 14 -7 14 -15 0 -8 7 -15 16 -15 9 0
18 -9 21 -20 3 -11 12 -20 19 -20 10 0 14 -14 14 -50 0 -38 4 -50 15 -50 10 0
15 -11 15 -35 0 -28 4 -35 20 -35 16 0 20 -7 20 -35 0 -24 5 -35 15 -35 13 0
15 -92 15 -770 0 -678 2 -770 15 -770 8 0 15 -4 15 -10 0 -6 128 -10 365 -10
237 0 365 4 365 10 0 6 7 10 15 10 13 0 15 233 13 2058 l-3 2057 -32 3 c-29 3
-33 7 -33 31 0 20 -6 30 -20 34 -11 3 -20 12 -20 21 0 12 -10 16 -35 16 -24 0
-35 5 -35 15 0 8 -7 15 -15 15 -8 0 -15 9 -15 20 0 13 -7 20 -20 20 -11 0 -20
7 -20 15 0 10 -10 15 -30 15 -28 0 -30 3 -30 35 0 33 -2 35 -31 35 -31 0 -79
37 -79 61 0 5 -16 9 -35 9 -24 0 -35 5 -35 15 0 8 -7 15 -15 15 -8 0 -15 4
-15 9 0 19 -51 61 -75 61 -18 0 -25 5 -25 20 0 13 -7 20 -20 20 -11 0 -20 7
-20 15 0 8 -7 15 -16 15 -9 0 -18 9 -21 20 -3 11 -12 20 -19 20 -8 0 -14 7
-14 15 0 8 -7 15 -15 15 -8 0 -15 7 -15 15 0 8 -7 15 -16 15 -9 0 -18 9 -21
20 -4 13 -14 20 -30 20 -27 0 -73 36 -73 58 0 7 -13 12 -30 12 -26 0 -30 3
-30 29 0 30 -14 41 -56 41 -15 0 -24 6 -24 15 0 8 -7 15 -15 15 -8 0 -15 6
-15 14 0 7 -9 16 -20 19 -11 3 -20 12 -20 21 0 11 -9 16 -26 16 -27 0 -74 36
-74 58 0 6 -5 12 -11 12 -7 0 -34 23 -60 50 -33 34 -56 50 -73 50 -16 0 -26 6
-26 15 0 8 -7 15 -15 15 -8 0 -15 9 -15 20 0 13 -7 20 -20 20 -11 0 -20 7 -20
15 0 10 -10 15 -26 15 -26 0 -74 40 -74 61 0 5 -7 9 -15 9 -15 0 -17 51 -20
488 l0 57 93 3 c87 3 94 1 99 -18 4 -14 14 -20 34 -20 19 0 29 -5 29 -15 0
-17 17 -20 22 -4 2 7 47 13 115 16 98 5 112 8 116 24 5 17 16 19 106 19 83 0
101 3 101 15 0 10 10 15 30 15 19 0 30 5 30 14 0 21 23 26 131 26 59 0 99 4
99 10 0 6 53 10 140 10 87 0 140 -4 140 -10 0 -17 77 -12 84 5 3 8 12 15 21
15 8 0 15 7 15 16 0 9 9 18 20 21 11 3 20 11 20 18 0 7 9 15 20 18 20 5 20 14
20 547 0 533 0 542 -20 547 -11 3 -20 12 -20 19 0 8 -7 14 -16 14 -9 0 -18 9
-21 20 -3 11 -11 20 -18 20 -7 0 -21 11 -31 25 l-19 25 -187 0 c-119 0 -188
-4 -188 -10z"/>
<path d="M6590 7575 c0 -9 -7 -18 -15 -21 -13 -5 -15 -199 -15 -1660 l0 -1654
920 0 c607 0 920 3 920 10 0 6 8 10 18 11 10 0 12 3 5 6 -16 6 -18 113 -3 113
7 0 10 515 10 1525 0 1010 -3 1525 -10 1525 -5 0 -10 17 -10 38 0 57 -10 82
-32 82 -11 0 -22 9 -25 20 -5 20 -14 20 -884 20 -783 0 -879 -2 -879 -15z
m1372 -823 c16 -16 17 -80 19 -850 l2 -833 -24 -25 -23 -25 -467 3 c-458 3
-468 3 -496 24 l-28 21 -3 812 c-2 911 -5 875 65 886 21 4 42 7 46 8 4 2 207
1 450 -1 396 -3 444 -6 459 -20z"/>
<path d="M7320 6477 c-19 -6 -40 -23 -47 -37 -10 -19 -13 -147 -13 -548 0
-564 0 -565 53 -594 14 -7 73 -12 167 -12 158 -1 178 5 217 62 17 25 18 63 21
530 3 557 3 554 -62 590 -40 21 -282 28 -336 9z"/>
<path d="M12525 7570 c-3 -11 -14 -20 -24 -20 -14 0 -20 -11 -25 -52 -8 -69
-8 -3171 0 -3220 l7 -38 918 0 919 0 0 1654 c0 1461 -2 1655 -15 1660 -8 3
-15 12 -15 21 0 13 -96 15 -879 15 -871 0 -880 0 -886 -20z m1367 -818 c16
-16 17 -82 19 -850 l2 -832 -23 -25 -23 -25 -444 0 c-423 0 -446 1 -488 20
-36 16 -46 27 -54 58 -7 24 -11 303 -11 803 0 827 0 822 52 850 43 23 76 25
512 21 394 -3 443 -6 458 -20z"/>
<path d="M13265 6484 c-11 -3 -31 -13 -45 -24 l-25 -19 -3 -523 c-2 -349 0
-535 8 -558 19 -64 44 -73 204 -74 155 -1 186 7 222 61 18 26 19 56 22 535 3
555 4 547 -55 585 -22 15 -52 18 -167 20 -78 1 -150 -1 -161 -3z"/>
<path d="M10300 6064 c0 -9 -9 -18 -20 -21 -11 -3 -20 -12 -20 -19 0 -10 -14
-14 -50 -14 -37 0 -50 -4 -50 -14 0 -8 -9 -18 -20 -21 -11 -3 -20 -13 -20 -21
0 -8 -7 -14 -15 -14 -8 0 -15 -7 -15 -15 0 -8 -9 -15 -20 -15 -13 0 -20 -7
-20 -20 0 -13 -7 -20 -20 -20 -16 0 -20 -7 -20 -35 0 -33 -2 -35 -35 -35 l-35
0 0 -50 c0 -38 -4 -50 -15 -50 -11 0 -15 -12 -15 -49 0 -40 -3 -50 -20 -54
-20 -5 -20 -14 -20 -667 0 -653 0 -662 20 -667 11 -3 20 -9 20 -14 0 -5 230
-9 530 -9 347 0 530 3 530 10 0 6 9 10 20 10 20 0 20 7 20 685 0 678 0 685
-20 685 -17 0 -20 7 -20 49 0 40 -3 50 -20 54 -11 3 -20 12 -20 21 0 9 -7 16
-15 16 -10 0 -15 11 -15 35 0 25 -4 35 -15 35 -9 0 -18 7 -21 15 -4 8 -12 15
-20 15 -8 0 -14 9 -14 20 0 11 -7 20 -15 20 -9 0 -18 7 -21 15 -4 8 -12 15
-20 15 -8 0 -14 6 -14 14 0 8 -9 18 -20 21 -11 3 -20 13 -20 21 0 10 -13 14
-50 14 -36 0 -50 4 -50 14 0 7 -9 16 -20 19 -11 3 -20 12 -20 21 0 14 -19 16
-140 16 -121 0 -140 -2 -140 -16z"/>
</g>
</svg>
